<?xml version="1.0" encoding="UTF-8" standalone="no"?><!DOCTYPE svg PUBLIC "-//W3C//DTD SVG 1.1//EN" "http://www.w3.org/Graphics/SVG/1.1/DTD/svg11.dtd"><svg width="100%" height="100%" viewBox="0 0 617 151" version="1.1" xmlns="http://www.w3.org/2000/svg" xmlns:xlink="http://www.w3.org/1999/xlink" xml:space="preserve" xmlns:serif="http://www.serif.com/" style="fill-rule:evenodd;clip-rule:evenodd;stroke-linejoin:round;stroke-miterlimit:2;"><g transform="matrix(0.959587,0,0,1,-25.135809,0)"><g transform="matrix(206.933409,0,0,206.933409,19.986415,147.750454)"><path d="M0.306,-0.178C0.33,-0.178 0.348,-0.185 0.36,-0.198C0.372,-0.211 0.378,-0.229 0.378,-0.25L0.378,-0.29L0.45,-0.29L0.45,-0.258C0.45,-0.215 0.438,-0.179 0.415,-0.152C0.392,-0.126 0.356,-0.112 0.308,-0.112C0.262,-0.112 0.226,-0.125 0.201,-0.15C0.175,-0.176 0.162,-0.216 0.162,-0.27L0.162,-0.426C0.162,-0.48 0.175,-0.521 0.203,-0.547C0.23,-0.575 0.265,-0.588 0.308,-0.588C0.353,-0.588 0.388,-0.575 0.413,-0.547C0.438,-0.521 0.45,-0.485 0.45,-0.442L0.45,-0.41L0.378,-0.41L0.378,-0.446C0.378,-0.467 0.372,-0.485 0.361,-0.5C0.35,-0.515 0.331,-0.522 0.306,-0.522C0.285,-0.522 0.267,-0.515 0.254,-0.501C0.241,-0.486 0.234,-0.465 0.234,-0.438L0.234,-0.258C0.234,-0.232 0.241,-0.212 0.255,-0.199C0.269,-0.185 0.286,-0.178 0.306,-0.178ZM0.582,-0.184C0.582,-0.117 0.565,-0.068 0.531,-0.035C0.498,-0.002 0.451,0.014 0.39,0.014L0.222,0.014C0.161,0.014 0.114,-0.002 0.081,-0.035C0.047,-0.068 0.03,-0.117 0.03,-0.184L0.03,-0.516C0.03,-0.583 0.047,-0.632 0.081,-0.665C0.114,-0.698 0.161,-0.714 0.222,-0.714L0.39,-0.714C0.451,-0.714 0.498,-0.698 0.531,-0.665C0.565,-0.632 0.582,-0.583 0.582,-0.516L0.582,-0.184ZM0.51,-0.51C0.51,-0.553 0.501,-0.586 0.481,-0.609C0.462,-0.631 0.432,-0.642 0.39,-0.642L0.222,-0.642C0.18,-0.642 0.149,-0.631 0.131,-0.609C0.112,-0.586 0.102,-0.553 0.102,-0.51L0.102,-0.19C0.102,-0.147 0.112,-0.114 0.131,-0.091C0.149,-0.069 0.18,-0.058 0.222,-0.058L0.39,-0.058C0.432,-0.058 0.462,-0.069 0.481,-0.091C0.501,-0.114 0.51,-0.147 0.51,-0.19L0.51,-0.51Z" style="fill:#ff3b00;fill-rule:nonzero;"/></g><g transform="matrix(206.933409,0,0,206.933409,682.173323,147.750454)"></g><text x="175.6px" y="147.75px" style="font-family:'SpaceMono-Regular', 'Space Mono', monospace;font-size:206.933px;fill:#ff3b00;"><tspan x="175.6px " y="147.75px ">2</tspan>026</text></g></svg>