<?xml version="1.0" encoding="UTF-8" standalone="no"?><!DOCTYPE svg PUBLIC "-//W3C//DTD SVG 1.1//EN" "http://www.w3.org/Graphics/SVG/1.1/DTD/svg11.dtd"><svg width="100%" height="100%" viewBox="0 0 10 10" version="1.1" xmlns="http://www.w3.org/2000/svg" xmlns:xlink="http://www.w3.org/1999/xlink" xml:space="preserve" xmlns:serif="http://www.serif.com/" style="fill-rule:evenodd;clip-rule:evenodd;stroke-linejoin:round;stroke-miterlimit:2;"><path d="M3.302,1.281C3.518,0.523 4.211,0 5,0C5.789,-0 6.482,0.523 6.698,1.281C6.699,1.284 6.7,1.286 6.7,1.289C6.782,1.575 7.075,1.744 7.364,1.672C7.366,1.671 7.369,1.671 7.371,1.67C8.136,1.478 8.936,1.817 9.33,2.5C9.724,3.183 9.618,4.045 9.07,4.611C9.068,4.613 9.066,4.615 9.064,4.617C8.857,4.831 8.857,5.169 9.064,5.383C9.066,5.385 9.068,5.387 9.07,5.389C9.618,5.955 9.724,6.817 9.33,7.5C8.936,8.183 8.136,8.522 7.371,8.33C7.369,8.329 7.366,8.329 7.364,8.328C7.075,8.256 6.782,8.425 6.7,8.711C6.7,8.714 6.699,8.716 6.698,8.719C6.482,9.477 5.789,10 5,10C4.211,10 3.518,9.477 3.302,8.719C3.301,8.716 3.3,8.714 3.3,8.711C3.218,8.425 2.925,8.256 2.636,8.328C2.634,8.329 2.631,8.329 2.629,8.33C1.864,8.522 1.064,8.183 0.67,7.5C0.276,6.817 0.382,5.955 0.93,5.389C0.932,5.387 0.934,5.385 0.936,5.383C1.143,5.169 1.143,4.831 0.936,4.617C0.934,4.615 0.932,4.613 0.93,4.611C0.382,4.045 0.276,3.183 0.67,2.5C1.064,1.817 1.864,1.478 2.629,1.67C2.631,1.671 2.634,1.671 2.636,1.672C2.925,1.744 3.218,1.575 3.3,1.289C3.3,1.286 3.301,1.284 3.302,1.281Z"/></svg>