<?xml version="1.0" encoding="UTF-8" standalone="no"?><!DOCTYPE svg PUBLIC "-//W3C//DTD SVG 1.1//EN" "http://www.w3.org/Graphics/SVG/1.1/DTD/svg11.dtd"><svg width="100%" height="100%" viewBox="0 0 10 10" version="1.1" xmlns="http://www.w3.org/2000/svg" xmlns:xlink="http://www.w3.org/1999/xlink" xml:space="preserve" xmlns:serif="http://www.serif.com/" style="fill-rule:evenodd;clip-rule:evenodd;stroke-linejoin:round;stroke-miterlimit:2;"><path d="M3.854,0.994C3.965,0.449 4.444,0.058 5,0.058C5.556,0.058 6.035,0.449 6.146,0.994C6.146,0.994 6.146,0.995 6.146,0.995C6.173,1.128 6.267,1.238 6.395,1.284C6.523,1.331 6.666,1.307 6.772,1.223C6.772,1.223 6.773,1.222 6.773,1.222C7.208,0.876 7.826,0.885 8.252,1.242C8.678,1.599 8.793,2.206 8.528,2.695C8.528,2.695 8.528,2.696 8.527,2.696C8.463,2.815 8.465,2.96 8.533,3.078C8.601,3.195 8.725,3.269 8.861,3.273C8.861,3.273 8.861,3.273 8.862,3.273C9.417,3.288 9.886,3.691 9.982,4.239C10.079,4.786 9.777,5.326 9.26,5.529C9.259,5.53 9.259,5.53 9.259,5.53C9.132,5.58 9.041,5.692 9.017,5.826C8.993,5.959 9.041,6.096 9.143,6.186C9.143,6.186 9.143,6.187 9.144,6.187C9.56,6.555 9.659,7.165 9.381,7.647C9.103,8.128 8.525,8.347 7.998,8.171C7.998,8.171 7.997,8.171 7.997,8.171C7.868,8.128 7.726,8.155 7.622,8.242C7.518,8.329 7.467,8.465 7.487,8.599C7.487,8.599 7.487,8.6 7.487,8.6C7.569,9.15 7.252,9.681 6.73,9.871C6.208,10.061 5.624,9.857 5.334,9.384C5.334,9.383 5.333,9.383 5.333,9.383C5.262,9.267 5.136,9.196 5,9.196C4.864,9.196 4.738,9.267 4.667,9.383C4.667,9.383 4.666,9.383 4.666,9.384C4.376,9.857 3.792,10.061 3.27,9.871C2.748,9.681 2.431,9.15 2.513,8.6C2.513,8.6 2.513,8.599 2.513,8.599C2.533,8.465 2.482,8.329 2.378,8.242C2.274,8.155 2.132,8.128 2.003,8.171C2.003,8.171 2.002,8.171 2.002,8.171C1.475,8.347 0.897,8.128 0.619,7.647C0.341,7.165 0.44,6.555 0.856,6.187C0.857,6.187 0.857,6.186 0.857,6.186C0.959,6.096 1.007,5.959 0.983,5.826C0.959,5.692 0.868,5.58 0.741,5.53C0.741,5.53 0.741,5.53 0.74,5.529C0.223,5.326 -0.079,4.786 0.018,4.239C0.114,3.691 0.583,3.288 1.138,3.273C1.139,3.273 1.139,3.273 1.139,3.273C1.275,3.269 1.399,3.195 1.467,3.078C1.535,2.96 1.537,2.815 1.473,2.696C1.472,2.696 1.472,2.695 1.472,2.695C1.207,2.206 1.322,1.599 1.748,1.242C2.174,0.885 2.792,0.876 3.227,1.222C3.227,1.222 3.228,1.223 3.228,1.223C3.334,1.307 3.477,1.331 3.605,1.284C3.733,1.238 3.827,1.128 3.854,0.995C3.854,0.995 3.854,0.994 3.854,0.994Z"/></svg>