<?xml version="1.0" encoding="UTF-8" standalone="no"?><!DOCTYPE svg PUBLIC "-//W3C//DTD SVG 1.1//EN" "http://www.w3.org/Graphics/SVG/1.1/DTD/svg11.dtd"><svg width="100%" height="100%" viewBox="0 0 10 10" version="1.1" xmlns="http://www.w3.org/2000/svg" xmlns:xlink="http://www.w3.org/1999/xlink" xml:space="preserve" xmlns:serif="http://www.serif.com/" style="fill-rule:evenodd;clip-rule:evenodd;stroke-linejoin:round;stroke-miterlimit:2;"><path d="M2.883,1.674C3.181,0.757 4.036,0.136 5,0.136C5.964,0.136 6.819,0.757 7.117,1.674C7.12,1.684 7.123,1.693 7.126,1.703C7.213,1.97 7.463,2.151 7.744,2.151C7.754,2.151 7.764,2.151 7.774,2.151C8.738,2.151 9.593,2.772 9.891,3.689C10.189,4.606 9.862,5.611 9.082,6.178C9.074,6.184 9.066,6.19 9.058,6.196C8.83,6.361 8.735,6.654 8.822,6.922C8.825,6.931 8.828,6.941 8.831,6.95C9.129,7.867 8.803,8.872 8.023,9.439C7.243,10.006 6.186,10.006 5.406,9.439C5.398,9.433 5.39,9.427 5.382,9.421C5.154,9.256 4.846,9.256 4.618,9.421C4.61,9.427 4.602,9.433 4.594,9.439C3.814,10.006 2.757,10.006 1.977,9.439C1.197,8.872 0.871,7.867 1.169,6.95C1.172,6.941 1.175,6.931 1.178,6.922C1.265,6.654 1.17,6.361 0.942,6.196C0.934,6.19 0.926,6.184 0.918,6.178C0.138,5.611 -0.189,4.606 0.109,3.689C0.407,2.772 1.262,2.151 2.226,2.151C2.236,2.151 2.246,2.151 2.256,2.151C2.537,2.151 2.787,1.97 2.874,1.703C2.877,1.693 2.88,1.684 2.883,1.674Z"/></svg>