<?xml version="1.0" encoding="UTF-8" standalone="no"?><!DOCTYPE svg PUBLIC "-//W3C//DTD SVG 1.1//EN" "http://www.w3.org/Graphics/SVG/1.1/DTD/svg11.dtd"><svg width="100%" height="100%" viewBox="0 0 10 10" version="1.1" xmlns="http://www.w3.org/2000/svg" xmlns:xlink="http://www.w3.org/1999/xlink" xml:space="preserve" xmlns:serif="http://www.serif.com/" style="fill-rule:evenodd;clip-rule:evenodd;stroke-linejoin:round;stroke-miterlimit:2;"><path d="M3.726,1.018C3.861,0.423 4.39,0 5,-0C5.61,-0 6.139,0.423 6.274,1.018C6.274,1.018 6.274,1.018 6.274,1.019C6.304,1.153 6.398,1.265 6.525,1.317C6.653,1.37 6.798,1.358 6.915,1.284C6.915,1.284 6.915,1.284 6.915,1.284C7.431,0.958 8.104,1.033 8.536,1.464C8.967,1.896 9.042,2.569 8.716,3.085C8.716,3.085 8.716,3.085 8.716,3.085C8.642,3.202 8.63,3.347 8.683,3.475C8.735,3.602 8.847,3.696 8.981,3.726C8.982,3.726 8.982,3.726 8.982,3.726C9.577,3.861 10,4.39 10,5C10,5.61 9.577,6.139 8.982,6.274C8.982,6.274 8.982,6.274 8.981,6.274C8.847,6.304 8.735,6.398 8.683,6.525C8.63,6.653 8.642,6.798 8.716,6.915C8.716,6.915 8.716,6.915 8.716,6.915C9.042,7.431 8.967,8.104 8.536,8.536C8.104,8.967 7.431,9.042 6.915,8.716C6.915,8.716 6.915,8.716 6.915,8.716C6.798,8.642 6.653,8.63 6.525,8.683C6.398,8.735 6.304,8.847 6.274,8.981C6.274,8.982 6.274,8.982 6.274,8.982C6.139,9.577 5.61,10 5,10C4.39,10 3.861,9.577 3.726,8.982C3.726,8.982 3.726,8.982 3.726,8.981C3.696,8.847 3.602,8.735 3.475,8.683C3.347,8.63 3.202,8.642 3.085,8.716C3.085,8.716 3.085,8.716 3.085,8.716C2.569,9.042 1.896,8.967 1.464,8.536C1.033,8.104 0.958,7.431 1.284,6.915C1.284,6.915 1.284,6.915 1.284,6.915C1.358,6.798 1.37,6.653 1.317,6.525C1.265,6.398 1.153,6.304 1.019,6.274C1.018,6.274 1.018,6.274 1.018,6.274C0.423,6.139 0,5.61 0,5C-0,4.39 0.423,3.861 1.018,3.726C1.018,3.726 1.018,3.726 1.019,3.726C1.153,3.696 1.265,3.602 1.317,3.475C1.37,3.347 1.358,3.202 1.284,3.085C1.284,3.085 1.284,3.085 1.284,3.085C0.958,2.569 1.033,1.896 1.464,1.464C1.896,1.033 2.569,0.958 3.085,1.284C3.085,1.284 3.085,1.284 3.085,1.284C3.202,1.358 3.347,1.37 3.475,1.317C3.602,1.265 3.696,1.153 3.726,1.019C3.726,1.018 3.726,1.018 3.726,1.018Z"/></svg>