<?xml version="1.0" encoding="UTF-8" standalone="no"?><!DOCTYPE svg PUBLIC "-//W3C//DTD SVG 1.1//EN" "http://www.w3.org/Graphics/SVG/1.1/DTD/svg11.dtd"><svg width="100%" height="100%" viewBox="0 0 10 10" version="1.1" xmlns="http://www.w3.org/2000/svg" xmlns:xlink="http://www.w3.org/1999/xlink" xml:space="preserve" xmlns:serif="http://www.serif.com/" style="fill-rule:evenodd;clip-rule:evenodd;stroke-linejoin:round;stroke-miterlimit:2;"><path d="M2.347,1.847C2.758,0.737 3.816,-0 5,0C6.184,0 7.242,0.737 7.653,1.847C7.675,1.907 7.695,1.961 7.712,2.007C7.76,2.137 7.863,2.24 7.993,2.288C8.039,2.305 8.093,2.325 8.153,2.347C9.263,2.758 10,3.816 10,5C10,6.184 9.263,7.242 8.153,7.653C8.093,7.675 8.039,7.695 7.993,7.712C7.863,7.76 7.76,7.863 7.712,7.993C7.695,8.039 7.675,8.093 7.653,8.153C7.242,9.263 6.184,10 5,10C3.816,10 2.758,9.263 2.347,8.153C2.325,8.093 2.305,8.039 2.288,7.993C2.24,7.863 2.137,7.76 2.007,7.712C1.961,7.695 1.907,7.675 1.847,7.653C0.737,7.242 -0,6.184 -0,5C0,3.816 0.737,2.758 1.847,2.347C1.907,2.325 1.961,2.305 2.007,2.288C2.137,2.24 2.24,2.137 2.288,2.007C2.305,1.961 2.325,1.907 2.347,1.847Z"/></svg>