<?xml version="1.0" encoding="UTF-8" standalone="no"?><!DOCTYPE svg PUBLIC "-//W3C//DTD SVG 1.1//EN" "http://www.w3.org/Graphics/SVG/1.1/DTD/svg11.dtd"><svg width="100%" height="100%" viewBox="0 0 10 10" version="1.1" xmlns="http://www.w3.org/2000/svg" xmlns:xlink="http://www.w3.org/1999/xlink" xml:space="preserve" xmlns:serif="http://www.serif.com/" style="fill-rule:evenodd;clip-rule:evenodd;stroke-linejoin:round;stroke-miterlimit:2;"><path d="M3.524,1.237C3.695,0.561 4.303,0.087 5,0.087C5.697,0.087 6.305,0.561 6.476,1.237C6.476,1.237 6.476,1.237 6.476,1.237C6.512,1.379 6.609,1.498 6.741,1.562C6.873,1.625 7.026,1.627 7.16,1.566C7.16,1.566 7.16,1.566 7.16,1.566C7.795,1.278 8.544,1.458 8.979,2.003C9.414,2.548 9.422,3.319 9.001,3.874C9,3.874 9,3.874 9,3.874C8.912,3.991 8.879,4.141 8.912,4.284C8.944,4.427 9.039,4.548 9.169,4.614C9.169,4.614 9.169,4.614 9.17,4.614C9.79,4.931 10.117,5.629 9.962,6.309C9.807,6.989 9.21,7.476 8.513,7.492C8.513,7.492 8.512,7.492 8.512,7.492C8.366,7.496 8.228,7.564 8.137,7.678C8.046,7.793 8.01,7.942 8.039,8.086C8.039,8.086 8.039,8.086 8.039,8.086C8.179,8.769 7.836,9.459 7.208,9.762C6.58,10.064 5.827,9.902 5.38,9.367C5.38,9.367 5.38,9.366 5.38,9.366C5.286,9.254 5.147,9.189 5,9.189C4.853,9.189 4.714,9.254 4.62,9.366C4.62,9.366 4.62,9.367 4.62,9.367C4.173,9.902 3.42,10.064 2.792,9.762C2.164,9.459 1.821,8.769 1.961,8.086C1.961,8.086 1.961,8.086 1.961,8.086C1.99,7.942 1.954,7.793 1.863,7.678C1.772,7.564 1.634,7.496 1.488,7.492C1.488,7.492 1.487,7.492 1.487,7.492C0.79,7.476 0.193,6.989 0.038,6.309C-0.117,5.629 0.21,4.931 0.83,4.614C0.831,4.614 0.831,4.614 0.831,4.614C0.961,4.548 1.056,4.427 1.088,4.284C1.121,4.141 1.088,3.991 1,3.874C1,3.874 1,3.874 0.999,3.874C0.578,3.319 0.586,2.548 1.021,2.003C1.456,1.458 2.205,1.278 2.84,1.566C2.84,1.566 2.84,1.566 2.84,1.566C2.974,1.627 3.127,1.625 3.259,1.562C3.391,1.498 3.488,1.379 3.524,1.237C3.524,1.237 3.524,1.237 3.524,1.237Z"/></svg>