<?xml version="1.0" encoding="UTF-8" standalone="no"?><!DOCTYPE svg PUBLIC "-//W3C//DTD SVG 1.1//EN" "http://www.w3.org/Graphics/SVG/1.1/DTD/svg11.dtd"><svg width="100%" height="100%" viewBox="0 0 10 10" version="1.1" xmlns="http://www.w3.org/2000/svg" xmlns:xlink="http://www.w3.org/1999/xlink" xml:space="preserve" xmlns:serif="http://www.serif.com/" style="fill-rule:evenodd;clip-rule:evenodd;stroke-linejoin:round;stroke-miterlimit:2;"><path d="M9.052,1.976L7.278,3.75L6.27,4.315L6.371,4.556L7.278,4.274L10,4.274L10,5.726L7.278,5.726L6.371,5.444L6.27,5.685L7.278,6.25L9.052,8.024L8.024,9.052L6.25,7.278L5.685,6.27L5.444,6.371L5.726,7.278L5.726,10L4.274,10L4.274,7.278L4.556,6.371L4.315,6.27L3.75,7.278L1.976,9.052L0.948,8.024L2.722,6.25L3.73,5.685L3.629,5.444L2.722,5.726L-0,5.726L-0,4.274L2.722,4.274L3.629,4.556L3.73,4.315L2.722,3.75L0.948,1.976L1.976,0.948L3.75,2.722L4.315,3.73L4.556,3.629L4.274,2.722L4.274,-0L5.726,-0L5.726,2.722L5.444,3.629L5.685,3.73L6.25,2.722L8.024,0.948L9.052,1.976Z" style="fill:rgb(255,59,0);fill-rule:nonzero;"/></svg>